<svg xmlns="http://www.w3.org/2000/svg" shape-rendering="geometricPrecision" text-rendering="geometricPrecision" image-rendering="optimizeQuality" fill-rule="evenodd" clip-rule="evenodd" viewBox="0 0 402 511.643"><path d="M59.117 0h166.805c16.305 0 31.185 6.655 41.791 17.34 10.753 10.767 17.313 25.567 17.313 41.791v135.777c-5.833 1.171-11.228 3.518-16.01 6.791V64.48H15.928v365.046h253.088v-20.177l16.01 3.443v39.732c0 16.318-6.641 31.2-17.313 41.793-10.781 10.778-25.568 17.326-41.791 17.326H59.117c-16.319 0-31.199-6.641-41.791-17.326C6.559 483.563 0 468.763 0 452.526V59.051c0-16.319 6.641-31.198 17.326-41.804C28.08 6.494 42.798 0 59.117 0zm188.834 325.171a4.494 4.494 0 01-.721 6.31 4.493 4.493 0 01-3.541.909l-17.846-.065-21.228-.166c-4.189-.045-8.211.838-11.352 2.485-2.111 1.106-3.777 2.549-4.717 4.249-.842 1.525-1.105 3.362-.56 5.458.619 2.375 2.212 5.107 5.034 8.166 2.487 2.697 5.935 4.989 9.57 6.862 5.282 2.721 10.947 4.548 14.844 5.54l82.165 26.066a4.458 4.458 0 011.997 1.29c5.701 5.508 10.803 9.06 15.231 10.442 3.632 1.133 6.798.649 9.444-1.605 18.307-15.256 38.556-32.16 57.481-46.443 3.894-3.184 6.55-7.217 7.978-12.076 1.527-5.189 1.699-11.385.544-18.553l-.265-1.733c-2.824-18.219-5.568-35.897-16.464-50.972l-14.417-17.017-3.086-3.872c-9.962-12.646-25.255-32.018-38.008-24.805l-7.957 6.514c4.757 5.229 9.115 11.292 13.021 16.727 2.213 3.08 4.269 5.938 6.157 8.277a4.489 4.489 0 01-6.995 5.624c-1.927-2.387-4.098-5.406-6.439-8.663-9.443-13.147-22.103-30.753-33.132-24.491l-9.026 7.347c5.436 5.606 10.377 12.48 14.753 18.57 2.215 3.082 4.269 5.942 6.157 8.28a4.488 4.488 0 11-6.995 5.623c-1.927-2.385-4.098-5.408-6.439-8.665-9.443-13.143-22.099-30.742-33.123-24.494l-9.205 7.438 11.752 15.007a4.486 4.486 0 01-.774 6.293 4.486 4.486 0 01-6.293-.774l-34.823-44.45c-7.249-8.972-15.629-11.643-22.399-10.191a16.136 16.136 0 00-6.739 3.198 15.886 15.886 0 00-4.532 5.878c-2.787 6.233-1.881 14.923 5.472 24.081l65.476 82.401zm95.846-33.856a4.488 4.488 0 016.995-5.624l14.59 18.057a4.489 4.489 0 01-6.996 5.624l-14.589-18.057zm-29.782 10.876a4.489 4.489 0 016.995-5.624l21.033 26.035a4.489 4.489 0 01-6.995 5.624l-21.033-26.035zm-78.946 21.203l-59.612-75.029c-9.755-12.152-10.687-24.287-6.643-33.33a24.877 24.877 0 017.097-9.219 25.116 25.116 0 0110.502-4.991c9.779-2.099 21.556 1.351 31.255 13.355l17.607 22.483 9.376-7.577a4.44 4.44 0 01.745-.485c8.434-4.948 16.302-2.885 23.468 2.351l.181-.156 10.27-8.357c.218-.177.447-.331.688-.461 9.267-5.479 17.848-2.492 25.567 3.883l9.006-7.374c.286-.236.594-.429.915-.581 19.428-11.252 37.696 11.898 49.6 26.984l2.817 3.534c4.316 4.659 11.016 12.36 14.709 17.401 12.326 16.895 15.245 35.712 18.252 55.111l.266 1.698c1.371 8.492 1.117 16.003-.795 22.491-1.945 6.619-5.59 12.132-10.955 16.505l-57.401 46.389c-5.191 4.358-11.158 5.356-17.83 3.277-5.629-1.759-11.727-5.846-18.243-12.043l-80.813-25.646c-4.332-1.11-10.626-3.16-16.62-6.248-4.471-2.304-8.79-5.209-12.067-8.759-3.866-4.192-6.128-8.234-7.109-11.997-1.173-4.514-.547-8.57 1.369-12.036 1.82-3.293 4.791-5.953 8.443-7.866 4.426-2.322 9.943-3.568 15.569-3.507l21.196.166 9.19.034zM142.511 79.167c26.271 0 50.057 10.651 67.272 27.866 17.215 17.213 27.866 41.001 27.866 67.272 0 12.541-2.43 24.521-6.843 35.485l-6.15-6.668a47.941 47.941 0 00-1.678-1.722 84.767 84.767 0 004.417-27.095c0-23.441-9.502-44.666-24.861-60.023-15.359-15.358-36.582-24.861-60.023-24.861-23.44 0-44.666 9.503-60.022 24.859-15.358 15.359-24.861 36.584-24.861 60.025 0 23.44 9.503 44.664 24.861 60.022 15.356 15.356 36.582 24.859 60.022 24.859a85.004 85.004 0 0022.091-2.905l7.734 8.386a95.006 95.006 0 01-29.825 4.773c-26.27 0-50.058-10.651-67.271-27.864-17.215-17.215-27.866-41.001-27.866-67.271 0-26.271 10.651-50.059 27.866-67.274 17.213-17.213 41.001-27.864 67.271-27.864zm-31.583 86.969c6.618 3.811 10.921 6.977 16.05 12.631 13.298-21.405 27.731-33.266 46.5-50.1l1.837-.708h20.539c-27.539 30.588-48.892 55.806-68.009 92.685-9.954-21.283-18.826-35.971-38.674-49.594l21.757-4.914zm31.511 281.887c13.372 0 24.301 10.767 24.301 24.303 0 13.386-10.767 24.315-24.301 24.315-13.375 0-24.317-10.767-24.317-24.315 0-13.363 10.767-24.303 24.317-24.303z"/></svg>